<?xml version="1.0" encoding="UTF-8"?>
<svg version="1.1" viewBox="0 0 1600 800" width="1280" height="1280" xmlns="http://www.w3.org/2000/svg">
<path transform="translate(304 271)" d="m0 0c0.76 0 1.53 0.01 2.31 0.01h2.46c2.75-0.01 5.51 0 8.26 0 1.99 0 3.98 0 5.97-0.01 5.51-0 11 0 16.5 0.01 5.98 0 12 0 17.9-0.01 10.5-0.01 21-0.01 31.5-0 11.3 0.01 22.5 0.01 33.8 0h2.16 8.68c27-0.01 53.9-0.01 80.9-0.01h2.42 2.43c24.4 0.01 48.8 0.01 73.2 0.01h4.89 19.7c18.3-0.01 36.6-0.01 55-0.01h2.53c26.6 0 53.2 0 79.8 0.01h2.61 42.1c55.6 0.01 111 0.01 167 0h42 2.62c26.6-0.01 53.1-0.01 79.7-0.01h2.53c18.3 0 36.6 0 54.9 0.01h19.6 4.88c24.4 0 48.8-0 73.1-0.01h2.42 2.42c26.9 0 53.8 0 80.7 0.01h8.65 2.14c11.2 0.01 22.5 0 33.7-0 11-0.01 22.1-0 33.1 0 5.91 0.01 11.8 0.01 17.7 0 5.36-0 10.7 0 16.1 0.01h5.82c2.61-0.01 5.23 0 7.84 0 0.76 0 1.52-0.01 2.31-0.01 5.18 0.04 5.18 0.04 7.41 2.27 0.19 2.69 0.26 5.28 0.24 7.97 0 0.84 0.01 1.67 0.01 2.53 0.01 2.81 0 5.62-0.01 8.43v6.03c0.01 5.47 0 10.9-0.01 16.4-0.01 5.71-0.01 11.4-0.01 17.1 0 9.58-0.01 19.2-0.02 28.8-0.01 11.1-0.02 22.2-0.02 33.3 0 10.7 0 21.3-0.01 32-0.01 4.55-0.01 9.09-0.01 13.6 0 5.35 0 10.7-0.01 16-0.01 1.97-0.01 3.94-0.01 5.91 0 2.67 0 5.35-0.01 8.02v2.4c-0.02 5.34-0.02 5.34-1.13 6.46-2.71 0.09-5.39 0.13-8.1 0.12h-2.6c-2.9 0-5.8-0.01-8.7-0.01h-6.2c-5.64 0-11.3-0.01-16.9-0.01-5.88-0.01-11.8-0.01-17.6-0.01-11.2 0-22.3-0.01-33.4-0.02-12.7-0.01-25.4-0.02-38.1-0.02-26.1-0.01-52.2-0.03-78.3-0.05l-1-2 1-2c4.72-1.15 9.44-1.14 14.3-1.13h2.48c2.73 0 5.46 0.01 8.19 0.01h5.89c5.32 0 10.6 0.01 16 0.01 5.56 0.01 11.1 0.01 16.7 0.01 10.5 0 21.1 0.01 31.6 0.02 12 0.01 24 0.02 36 0.02 24.7 0.02 49.3 0.03 74 0.06 0.02-23.5 0.04-47 0.05-70.5 0-10.9 0.01-21.8 0.02-32.8 0.01-9.51 0.02-19 0.02-28.6 0-5.03 0-10.1 0.01-15.1 0.01-4.75 0.01-9.5 0.01-14.2v-5.2c0.02-9.61-0.18-19.1-1.11-28.6-15.7-0.83-31.4-1.14-47.1-1.1h-6.93c-4.92 0.01-9.84 0.01-14.8 0.02-7.79 0.01-15.6 0.02-23.4 0.02-10.9 0.01-21.8 0.02-32.7 0.03-0.69 0.01-1.37 0.01-2.08 0.01-4.9 0-9.79 0.01-14.7 0.02-5.62 0-11.2 0.01-16.9 0.02h-2.1c-11.6 0.01-23.1 0.02-34.7 0.03-7.74 0-15.5 0.01-23.2 0.03-4.8 0-9.6 0.01-14.4 0.01-2.22 0-4.45 0.01-6.67 0.01-3.04 0.01-6.07 0.01-9.11 0.01-1.32 0-1.32 0-2.68 0.01-4.06-0.01-7.69-0.28-11.7-1.12-2.04-0.02-4.08 0.03-6.11 0.12-1.24 0.05-2.48 0.1-3.75 0.15-0.67 0.03-1.33 0.06-2.02 0.09-14.2 0.58-28.4 0.72-42.6 0.64-0.94 0-1.89-0.01-2.86-0.01-6.01-0.04-12-0.08-18-0.13-5.34-0.04-10.7-0.07-16-0.1-12.4-0.07-24.8-0.16-37.1-0.24-15.8-0.11-31.6-0.22-47.4-0.31-6.33-0.04-12.6-0.08-19-0.13-3.94-0.03-7.89-0.05-11.8-0.07-1.8-0.01-3.61-0.03-5.42-0.04-2.49-0.02-4.99-0.04-7.48-0.05-1.03-0.01-1.03-0.01-2.09-0.02-4.42-0.02-8.81 0.18-13.2 0.45-11.5 0.72-23 0.79-34.5 0.77-2.22 0-4.44 0-6.66 0.01h-18.2c-5.89-0.01-11.8 0-17.7 0h-38.4-33.7-2.27-9.14-85.8c-25.2-0.01-50.3-0.01-75.5 0h-85.2-9.19-2.29-31.3c-54.9 0.01-110 0.02-165-0.41-4.32-0.03-8.64-0.06-13-0.08-4.93-0.02-9.87-0.06-14.8-0.11-1.79-0.02-3.58-0.03-5.37-0.04-2.42-0.01-4.83-0.03-7.25-0.06h-2.14c-1.94-0.04-1.94-0.04-5.02-0.43l-2-3c2.5-2.51 3.99-2.25 7.4-2.27z" fill="#D3C2BC"/>
<path transform="translate(738,322)" d="m0 0c0.99 0.33 1.98 0.66 3 1 0.13 8.95 0.26 17.9 0.39 26.8l0.18 12.5c0.33 22.2 0.5 44.4 0.43 66.7-3-1-3-1-5-4-0.21-2.84-0.31-5.58-0.32-8.42-0.01-0.86-0.02-1.72-0.03-2.6-0.03-2.84-0.05-5.68-0.06-8.52l-0.06-5.91c-0.05-5.18-0.09-10.4-0.13-15.6-0.04-5.29-0.09-10.6-0.14-15.9-0.1-10.4-0.18-20.8-0.26-31.1h-3c-0.08 0.68-0.16 1.36-0.25 2.06-0.75 2.93-1.9 5.15-3.45 7.73-1.66 2.82-3.19 5.7-4.74 8.59-4.66 8.67-9.46 17.2-14.6 25.6-1.5 2.5-3.01 5.01-4.5 7.52-0.98 1.62-1.97 3.23-2.96 4.84-3.69 5.98-6.85 12.1-9.93 18.4-2.28 4.52-4.92 8.77-7.67 13-0.76 1.19-0.76 1.19-1.54 2.4-0.46 0.59-0.92 1.18-1.4 1.79-2 0-2 0-4.25-1.81-3.91-4.07-6.18-9.23-8.75-14.2-0.93-1.73-1.87-3.46-2.81-5.19-0.5-0.91-0.99-1.81-1.5-2.75-1.25-2.26-2.51-4.51-3.79-6.75-4.18-7.34-8.16-14.7-11.9-22.3-2.69-5.44-5.63-10.7-8.65-16-3.18-5.57-6.05-11.3-8.81-17.1-1.56-3.62-1.56-3.62-4.56-5.96v92h-3c-2.62-2.62-2.24-4.46-2.26-8.03 0.01-0.84 0.01-1.69 0.02-2.56 0-0.89-0.01-1.78-0.01-2.7 0-2.95 0.01-5.91 0.02-8.86v-6.17c0-4.32 0.01-8.64 0.02-13 0.02-5.51 0.03-11 0.02-16.5 0-4.26 0.01-8.51 0.02-12.8v-6.09c0.02-20.4 0.02-20.4 1.17-29.3 6.21 2.07 8.99 9.84 11.8 15.4 0.88 1.79 1.75 3.58 2.62 5.38 1.42 2.84 2.96 5.51 4.61 8.23 1.31 2.39 2.6 4.78 3.88 7.19 0.35 0.66 0.7 1.32 1.06 2.01 2.38 4.48 4.67 9 6.92 13.6 1.53 3.01 3.17 5.96 4.83 8.91 1.43 2.56 2.84 5.14 4.25 7.72 0.51 0.93 1.01 1.86 1.54 2.82 0.97 1.79 1.95 3.59 2.92 5.38 4.44 8.19 9.02 16.3 13.6 24.4 2.62-2.28 2.62-2.28 3.19-5.69-0.06-0.76-0.13-1.52-0.19-2.31l2-1c1.05-1.74 1.05-1.74 2-3.81 0.33-0.69 0.66-1.38 1-2.08 0.5-1.05 0.5-1.05 1-2.11 1.39-2.83 2.85-5.61 4.38-8.38 0.59-1.09 0.59-1.09 1.21-2.21 1.03-1.77 2.15-3.49 3.32-5.18 2.84-4.39 5.02-9.03 7.27-13.8 2.61-5.38 2.61-5.38 4.82-6.48 0.69-1.59 1.37-3.17 2.02-4.78 1.6-3.62 3.57-7.03 5.48-10.5 1.94-3.53 3.73-7.12 5.5-10.7h2c0.37-1.45 0.37-1.45 0.75-2.94 0.41-1.01 0.83-2.02 1.25-3.06 2.12-0.88 2.12-0.88 4-1 0.06-0.97 0.12-1.94 0.19-2.94 0.67-4.94 3.24-8.87 5.81-13.1zm-115 71v11h1v-11h-1z" fill="#D2C1BB"/>
<path transform="translate(134,362)" d="m0 0c3 2 3 2 3.5 4.24 0.06 0.91 0.12 1.82 0.17 2.75 0.07 0.99 0.13 1.98 0.2 3 0.19 4.39 0.31 8.77 0.34 13.2 0.01 0.95 0.02 1.9 0.03 2.87 0.03 3.09 0.05 6.18 0.08 9.27l0.06 6.48 0.15 17c0.05 5.78 0.11 11.6 0.16 17.3 0.11 11.3 0.21 22.6 0.31 33.9 9.84 1.29 19.6 1.1 29.5 1.05 1.98-0.01 3.95-0.01 5.93-0.02 4.24-0.01 8.48-0.03 12.7-0.05l20.1-0.06c2.3 0 4.6-0.01 6.9-0.01 1.15 0 2.3-0.01 3.48-0.01 15.6-0.04 31.2-0.08 46.8-0.15 10.5-0.04 21.1-0.07 31.6-0.09 5.57 0 11.1-0.02 16.7-0.05 5.24-0.03 10.5-0.05 15.7-0.04 1.92-0.01 3.84-0.02 5.76-0.03 2.62-0.03 5.24-0.02 7.86-0.01 0.76-0.02 1.53-0.03 2.32-0.04 5.15 0.05 5.15 0.05 7.6 2.54 0.33 0.65 0.66 1.3 1 1.97-1.83 1.83-4.37 1.13-6.8 1.14-0.84 0-1.68 0-2.54-0.01-0.89 0.01-1.78 0.01-2.69 0.01-2.99 0.01-5.98 0.01-8.97 0.01-2.14 0-4.27 0-6.41 0.01-5.81 0-11.6 0.01-17.4 0.01-4.85 0-9.7 0-14.5 0.01-11.4 0-22.9 0.01-34.3 0.01-11.8-0.01-23.6 0.01-35.4 0.02-10.1 0.01-20.2 0.02-30.4 0.02-6.06 0-12.1 0-18.2 0.01-5.69 0.01-11.4 0.01-17.1 0-2.1 0-4.19 0.01-6.28 0.01-2.85 0.01-5.7 0-8.55 0-0.84 0-1.67 0.01-2.54 0.01-5.7-0.03-5.7-0.03-7.93-2.26-0.25-2.01-0.25-2.01-0.25-4.52 0-0.96-0.01-1.91-0.01-2.89 0.01-1.05 0.01-2.09 0.02-3.17 0-1.11-0.01-2.21-0.01-3.34 0-3.65 0.01-7.31 0.02-11v-7.58c0-5.31 0.01-10.6 0.02-15.9 0.02-6.14 0.03-12.3 0.02-18.4 0-5.9 0.01-11.8 0.02-17.7v-7.54c0.01-3.5 0.01-7.01 0.02-10.5v-3.18c0.01-0.95 0.01-1.9 0.02-2.87v-2.52c0.13-1.88 0.13-1.88 1.13-2.88z" fill="#D3C2BC"/>
<path transform="translate(537 456)" d="m0 0c1.67 0.06 1.67 0.06 3.38 0.12v2h2c2.16 3.26 2.27 4.34 2.37 8.12 0.06 1.5 0.06 1.5 0.11 3.03 0.02 1.05 0.05 2.09 0.08 3.17 0.19 8.89 0.19 8.89 1.44 17.7 1.97-0.34 1.97-0.34 4-1 0.33-0.65 0.65-1.31 1-2 3.7-1.44 7.7-1.14 11.6-1.12 0.68 0 1.36-0.01 2.06-0.01 5.06 0.01 5.06 0.01 7.32 1.13v2c0.72 0.15 1.44 0.29 2.18 0.44 5.25 2.92 7.12 8.68 9.13 14.1 1.33 6.66 0.92 12-1.31 18.4-0.42 1.2-0.83 2.4-1.26 3.63-2.2 4.25-4.83 7.36-9.53 9-2.91 0.49-5.71 0.55-8.65 0.56-1.67 0.02-1.67 0.02-3.37 0.05-5.13-0.37-8.19-2.2-12.2-5.24h-2c-0.66 1.32-1.33 2.64-2 4-4.76-0.87-4.76-0.87-7-2-0.34-23.1-0.66-46.2-1-70-1.33-0.32-2.64-0.66-4-1 0-4.6 1.13-4.97 5.62-5.12zm12.4 40.1c-0.34 1-0.66 1.99-1 3l-2 1c-2.13 7.17-3.09 15 0 22 2.86 3.46 5.74 5.59 10 7 1.8 0.12 3.62 0.18 5.43 0.19 1.42 0.02 1.42 0.02 2.87 0.05 3.73-0.32 5.84-1.32 8.38-4.05 3.74-6.23 3.03-15.5 1.97-22.4-1.09-4.18-2.68-7.52-6.42-9.82-6.72-2.76-14-1.77-19.2 3.08z" fill="#D2C1BB"/>
<path transform="translate(997,321)" d="m0 0v2c1.22 0.1 2.43 0.21 3.69 0.31 6.1 0.52 10.3 4.31 14.9 8.07 0.93 0.75 1.86 1.5 2.82 2.27 11.3 10.1 15.7 24.9 16.9 39.6 0.19 10.4-1.55 21.3-6.26 30.8h-3c-0.09 1.33-0.09 1.33-0.19 2.69-1.01 4.13-2.58 5.61-5.81 8.31-0.72 0.35-1.44 0.7-2.19 1.06-1.98 0.78-1.98 0.78-2.62 2.82-2.78 4.96-10.1 7.02-15.2 9.12-0.57 0.34-1.15 0.69-1.74 1.04-3.18 1.35-6.35 1.48-9.76 1.65-0.71 0.03-1.42 0.07-2.16 0.11-17.2 0.75-29.9-3.73-43-15.1-8.22-7.73-14-16.4-15.4-27.7-0.13-1.04-0.27-2.08-0.4-3.14-1.5-15 0.82-29.7 8.4-42.9 1.38-1.56 1.38-1.56 3-3l5-5c0.66-0.72 1.32-1.44 2-2.19 2.21-2 4.19-2.87 7-3.81v-2c30.5-13.1 30.5-13.1 44-5zm-43 9c-0.69 0.47-1.37 0.93-2.08 1.41-4.01 2.82-6.65 5.17-8.92 9.59-0.71 0.68-0.71 0.68-1.44 1.38-4.77 4.96-7.39 11.7-7.68 18.6 0.06 1.02 0.06 1.02 0.12 2.06-1.49 0.5-1.49 0.5-3 1-0.09 3.48-0.14 6.96-0.19 10.4-0.02 0.97-0.05 1.95-0.07 2.95-0.07 6.46 0.78 11.6 3.26 17.6 0.35 0.9 0.71 1.79 1.07 2.71 5.3 11.2 14.3 20.6 25.7 25.6 12.3 4.14 30.1 4.89 41.9-0.87 1.47-0.8 2.93-1.61 4.38-2.44v-2c0.89-0.23 1.77-0.45 2.69-0.69 3.92-1.55 5.54-3.13 8.31-6.31 0.57-0.63 1.14-1.26 1.73-1.91 8.58-10.1 9.91-20.9 9.71-33.8 0-1.25 0.01-2.5 0.02-3.8-0.05-7.05-0.64-13-3.46-19.5-0.41-0.97-0.83-1.94-1.25-2.94-6.59-11.5-16-21.8-29.1-25.8-2.24-0.28-4.36-0.3-6.61-0.26-0.96-0.05-1.92-0.09-2.91-0.14-10.9-0.37-23 0.63-32.1 7.14zm76 41v7h1v-7h-1z" fill="#D2C1BB"/>
<path transform="translate(815,320)" d="m0 0h2c8.34 10.3 13.2 23.7 18.6 35.7 3.86 8.56 8.19 16.9 12.4 25.3 3.91 7.7 7.59 15.5 11 23.4 1.62 3.71 3.28 7.39 5.04 11 0.33 0.68 0.67 1.37 1.01 2.08 0.63 1.29 1.26 2.58 1.91 3.87 2.1 4.35 2.1 4.35 0.99 7.68-4.15-3.77-6.66-7.52-9.19-12.5-0.34-0.65-0.68-1.3-1.03-1.97-1.81-3.48-3.31-6.87-4.78-10.5h-74l-2 5c-0.71 1.18-0.71 1.18-1.44 2.38-1.67 2.68-1.67 2.68-3 6-1.62 3.75-3.48 7.11-5.56 10.6h-3c0.59-6.15 0.59-6.15 1-8 0.99-0.5 0.99-0.5 2-1 0.78-1.7 0.78-1.7 1.5-3.88 2.41-6.36 5.67-12.2 8.97-18.2 2.69-4.95 4.4-9.42 5.53-15h2c0.18-0.83 0.36-1.66 0.55-2.52 0.25-1.09 0.5-2.17 0.76-3.29 0.37-1.62 0.37-1.62 0.74-3.27 0.96-2.95 1.71-3.92 3.95-5.92l1-3c1.03-3.1 1.78-3.79 4-6 1.08-1.82 1.08-1.82 1.97-3.84 0.34-0.73 0.69-1.47 1.04-2.22 0.35-0.77 0.69-1.53 1.05-2.32 0.35-0.75 0.71-1.51 1.07-2.28 1.73-3.74 3.39-7.49 4.87-11.3h2c0.1-0.71 0.2-1.41 0.31-2.14 0.79-3.27 2.1-5.75 3.75-8.67 0.82-1.47 0.82-1.47 1.66-2.96 0.42-0.74 0.85-1.47 1.28-2.23zm-2 10c-1.22 2.62-1.22 2.62-2.25 5.75-2.72 7.41-6.13 14.2-9.75 21.2-0.92 1.83-1.84 3.67-2.75 5.5-1.25 2.51-2.52 5.01-3.81 7.5-1.23 2.56-2.28 5.11-3.32 7.75-1.72 4.41-3.74 8.56-5.97 12.7-1.41 3.09-2.24 6.25-3.15 9.52 7.98 0.02 16 0.04 23.9 0.05 3.71 0.01 7.41 0.01 11.1 0.03 3.58 0.01 7.16 0.01 10.7 0.01 1.36 0.01 2.72 0.01 4.08 0.02h5.75c1.63 0.01 1.63 0.01 3.29 0.01 3.11-0.12 6.03-0.54 9.08-1.12l-2-8h-2c-0.21-0.91-0.41-1.81-0.62-2.75-1.29-4.48-3.4-8.45-5.52-12.6-2.29-4.47-4.45-9-6.61-13.5-0.58-1.21-0.58-1.21-1.18-2.45-1.98-4.16-3.73-8.25-5.07-12.7h-2l-2-9h-2c-0.15-1.08-0.15-1.08-0.31-2.19-0.75-3.07-1.91-5.21-3.69-7.81-1.46-0.09-1.46-0.09-4 2zm-22 70v1h9v-1h-9z" fill="#D2C1BB"/>
<path transform="translate(1354,320)" d="m0 0c5.68 5.05 8.96 11.6 11.9 18.5 1.29 3 2.65 5.95 4.03 8.92 1.86 4.01 3.69 8.02 5.5 12.1 3.39 7.49 7.15 14.8 10.9 22.2 15 29.7 15 29.7 17.7 42.4-4.61-4.12-6.88-8.47-9.14-14.2-0.88-2.11-0.88-2.11-2.86-4.82-4.68-1-9.26-1.12-14-1.11h-2.01c-2.17 0-4.34 0-6.51 0.01-1.51 0-3.03 0.01-4.54 0.01-3.97 0-7.94 0.01-11.9 0.02-4.06 0.01-8.11 0.02-12.2 0.02-7.94 0.01-15.9 0.03-23.8 0.05-0.14 0.77-0.28 1.54-0.42 2.33-1.78 8.2-7.58 16-13.6 21.7 0.7-8.19 4.3-14.6 8-21.9 2.4-4.73 4.27-9.46 6.01-14.5 1.64-4.39 3.83-8.49 5.99-12.6 0.88-1.77 1.75-3.54 2.62-5.31 1.67-3.33 3.44-6.52 5.38-9.69 1.01-2 2.01-4 3-6 0.56-1.09 1.11-2.18 1.68-3.3 3.95-7.75 3.95-7.75 7.32-15.8 6.37-16.6 6.37-16.6 11-18.9zm-1 9c-4.37 7.94-8.48 15.8-11.8 24.2-1.81 4.38-3.98 8.57-6.15 12.8-3.42 6.73-6.64 13.5-9.81 20.4-0.52 1.09-1.03 2.18-1.56 3.3-0.48 1.04-0.97 2.08-1.46 3.16-0.66 1.41-0.66 1.41-1.34 2.86-0.27 0.76-0.55 1.52-0.83 2.3l1 2c7.92-0.5 7.92-0.5 16-1v2c8.82 1.07 17.4 0.9 26.2 0.28 2.14-0.16 4.27-0.3 6.41-0.43 6.17-0.41 12.3-0.92 18.4-1.85-0.99-3.3-1.98-6.6-3-10h-2c-0.23-0.76-0.45-1.53-0.69-2.31-2.64-9.05-2.64-9.05-8.31-15.7-0.85-2.29-0.85-2.29-1.62-5.06-0.27-0.92-0.53-1.84-0.79-2.79-0.2-0.71-0.39-1.42-0.59-2.15h-2c-0.08-0.8-0.16-1.61-0.25-2.44-0.96-4.57-2.72-8.36-4.75-12.6-0.3-0.64-0.61-1.29-0.92-1.95-1.04-2.19-2.09-4.37-3.14-6.55-0.51-1.08-0.51-1.08-1.03-2.18-0.9-1.81-1.9-3.57-2.91-5.32-0.99-0.33-1.98-0.66-3-1zm-32 71v1h10v-1h-10zm11 0 4 1zm17 2v1h12v-1h-12z" fill="#D0BFB9"/>
<path transform="translate(336,320)" d="m0 0c3.58 0.61 3.97 0.97 6.48 4 2.73 4.11 4.84 8.46 6.9 12.9 0.38 0.83 0.77 1.66 1.17 2.52 2.72 5.86 5.31 11.8 7.86 17.7 2.29 5.26 4.8 10.4 7.4 15.5 2.84 5.62 5.56 11.3 8.25 17 4.43 9.35 8.92 18.6 13.7 27.8 0.56 1.08 1.12 2.16 1.7 3.28 0.51 0.95 1.01 1.9 1.53 2.88 0.97 2.43 0.97 2.43-0.03 5.43-5.38-1.92-7.54-6.93-9.92-11.8-0.62-1.31-1.23-2.63-1.83-3.95-0.32-0.67-0.63-1.34-0.96-2.04-2.29-4.95-2.29-4.95-2.29-7.21h-76l-1 7c-1.49 3.1-1.49 3.1-3.31 6.06-0.63 1.03-1.26 2.06-1.9 3.12-1.89 2.97-3.78 5.93-5.79 8.82-1-2-1-2-0.12-4.94 0.37-1.01 0.74-2.02 1.12-3.06l1-3h2c0.1-1.03 0.21-2.06 0.31-3.12 0.71-3.97 1.79-6.36 3.69-9.88 0.82-1.77 1.63-3.54 2.44-5.31 0.65-1.43 0.65-1.43 1.31-2.89 1.09-2.45 2.17-4.91 3.25-7.36 3.67-8.27 7.91-16.2 12.2-24.2 1.82-3.37 3.39-6.71 4.77-10.3 1.09-2.4 2.19-4.8 3.31-7.19 0.47-0.99 0.47-0.99 0.94-2.01 1.75-3.74 3.56-7.44 5.44-11.1 2.42-4.78 4.41-9.69 6.31-14.7zm2 7c-4.45 8.77-8.74 17.6-12.9 26.5-1.86 3.97-3.81 7.75-6.11 11.5-0.61 1.28-1.19 2.57-1.75 3.88-1.88 4.31-3.83 8.6-5.81 12.9-0.3 0.64-0.59 1.28-0.89 1.93-1.29 2.78-2.6 5.39-4.26 7.96-1.69 2.64-1.69 2.64-1.29 7.36h67c-2.46-8.45-2.46-8.45-6-16-0.66-1.23-1.32-2.46-1.97-3.69-1.05-1.95-2.1-3.89-3.16-5.83-1.85-3.44-3.49-6.82-4.87-10.5-2.89-7.05-5.86-14.1-9-21h-2c-0.06-0.8-0.12-1.61-0.19-2.44-1.08-4.72-3.33-8.44-5.81-12.6h-1zm-17 73v1h40v-1h-40z" fill="#D2C1BB"/>
<path transform="translate(572 330)" d="m0 0c9.99 8.51 18.4 19.2 20.7 32.4 0.27 4.35 0.28 8.7 0.31 13.1 0.05 1.74 0.05 1.74 0.09 3.53 0.1 13.2-3.83 25.5-13.1 35.2-3.68 3.21-3.68 3.21-6.29 3.21-0.49 1.48-0.49 1.48-1 3-12.7 8.81-25.1 12.7-40.6 10.6-2.19-0.45-4.3-1-6.44-1.65-0.64-0.2-1.28-0.39-1.94-0.59-14.2-4.87-25.1-13-32.1-26.4-0.51-0.93-1.03-1.86-1.56-2.82-1.63-3.6-2.46-7.13-3.13-11-0.12-0.71-0.25-1.42-0.38-2.16-1.41-8.45-0.98-15.5 0.38-23.9 0.12-0.75 0.24-1.5 0.36-2.27 0.69-3.9 1.22-6.34 4.33-8.85 0.47-1.46 0.47-1.46 0.94-2.94 1.17-3.37 2.5-4.66 5.06-7.06 0.35-0.73 0.7-1.45 1.06-2.19 0.94-1.81 0.94-1.81 3.94-2.81 0.85-0.85 1.69-1.7 2.56-2.57 0.81-0.8 1.61-1.61 2.44-2.43h2l1-4c0.54-0.13 1.07-0.25 1.63-0.38 2.83-0.75 5.59-1.68 8.37-2.62v-2c17.9-6.77 36.2-4.53 51.3 7.55zm-46.3-5.55c-0.83 0.18-1.66 0.37-2.52 0.57-11.8 2.86-19.6 11.6-25.9 21.7-8.63 15.6-8.46 30.8-4.51 47.8 3.98 12.8 12.7 22.1 24.3 28.2 7.22 3.41 14 3.91 21.9 3.91 0.81 0.02 1.61 0.03 2.44 0.04 12.2 0.03 23.4-3.57 32.2-12.2v-2c0.6-0.25 1.2-0.5 1.81-0.75 6.57-3.76 10.1-13.3 12.2-20.2 2.3-12.7 2.01-26.6-2-39l-2-2c-0.73-1.35-1.44-2.7-2.12-4.07-2.87-5.26-6.49-9.84-10.9-13.9h-2v-2c-5.25-2.82-10.2-4.82-16-6.39-2-0.61-2-0.61-3-1.61-2.72-0.13-5.4-0.19-8.12-0.19-0.75-0.01-1.5-0.03-2.27-0.04-4.89-0.01-8.92 0.7-13.6 2.23z" fill="#D1C0BA"/>
<path transform="translate(257,266)" d="m0 0v1c-0.9-0.01-1.8-0.01-2.73-0.02-3.38-0.01-6.75-0.03-10.1-0.03-1.46-0.01-2.91-0.02-4.37-0.03-2.1-0.01-4.2-0.01-6.31-0.02-1.26 0-2.52-0.01-3.82-0.01-5 0.15-9.86 0.44-14.4 2.67-3.25 1.44-3.25 1.44-6.25 1.44l-1 3c2.31-0.31 4.63-0.62 6.94-0.94 1.29-0.17 2.57-0.35 3.9-0.52 3.01-0.2 3.01-0.2 4.16-1.54 3.47-0.25 6.96-0.19 10.4-0.19 0.98-0.01 1.96-0.02 2.97-0.03 1.4-0.01 1.4-0.01 2.84-0.01 0.86 0 1.72-0.01 2.61-0.01 2.14 0.24 2.14 0.24 4.14 2.24 0.8 0.14 1.61 0.29 2.44 0.44 2.56 0.56 2.56 0.56 3.96 1.99 1.84 1.81 3.38 2.42 5.79 3.32 10.1 4.39 14.7 11.2 18.8 21.2 0.68 2 1.35 4 2 6l1 2c0.86 10.1 1.21 21.6-3 31l-2 2c-0.72 2.32-1.39 4.65-2 7 1.49 0.5 1.49 0.5 3 1-1.25 0.65-2.5 1.3-3.75 1.94-1.04 0.54-1.04 0.54-2.11 1.09-2.14 0.97-2.14 0.97-4.34 1.41-0.6 0.19-1.19 0.37-1.8 0.56-0.5 1.49-0.5 1.49-1 3-1.65 1.03-3.32 2.03-5 3l-1 2-2-1c1.29-3.86 3.07-4.55 6.41-6.62 1.96-1.7 2.08-2.88 2.59-5.38l4-4c1.25-2.63 1.25-2.63 2-5-0.78 0.52-1.57 1.03-2.38 1.56-0.86 0.48-1.73 0.95-2.62 1.44l-2-1c0.74-0.52 1.49-1.03 2.25-1.56 5.68-5.04 7.8-11.1 8.75-18.4 0.7-12-2.69-21.6-10.1-31.2-7.15-6.96-17.1-9.83-26.8-10.9l-4.05-0.48c-1-0.11-1-0.11-2.02-0.22-1.41-0.16-2.81-0.35-4.21-0.55-4.21-0.59-7.32-0.57-11.4 0.67-2.43 0.64-2.43 0.64-5.71 1.13-11.3 1.75-20.9 6.18-30 13.3-1.73 1.22-1.73 1.22-4.73 1.22 1.03-5.9 5.67-9.34 10.4-12.7 1.53-1 3.07-1.99 4.62-2.96 1.94-1.3 3.39-2.71 5.02-4.36 5.57-3.19 11.7-5.38 18-6.56 0.66-0.15 1.32-0.29 2-0.44l1-2c2.42-0.49 4.74-0.85 7.19-1.12 0.72-0.09 1.44-0.17 2.18-0.26 10.8-1.16 21-1.04 31.6 1.38zm-34 6v1h6v-1h-6zm51 37 1 2z" fill="#D1C1BB"/>
<path transform="translate(659 488)" d="m0 0c0.78 0.74 1.57 1.49 2.38 2.25 1.11 0.96 1.11 0.96 2.24 1.94 4.15 4.88 4.62 10.8 4.76 17.1-0.34 1.32-0.66 2.64-1 4-16.3 0.5-16.3 0.5-33 1 1.05 8.47 1.05 8.47 4.43 11.5 4.29 2.51 7.55 2.64 12.4 2.63h3.68c3.36-0.03 3.36-0.03 6.27-0.7 2.18-0.43 2.18-0.43 4.18 0.57-0.34 1.65-0.66 3.3-1 5-9.38 3.23-17.5 4.51-26.9 0.44-4.7-2.45-8.26-5.99-11.1-10.4-2.33-7.96-2.21-18.3 1-26 2.78-5.08 6.12-8.71 11.8-10.6 6.03-1.11 14.5-2.18 19.9 1.34zm-21.6 7.25c-2.36 3.74-3.51 6.57-3 11 2.37 2.37 8.17 1.48 11.4 1.63 1.46 0.07 1.46 0.07 2.95 0.15 0.93 0.05 1.86 0.09 2.82 0.13 1.29 0.07 1.29 0.07 2.6 0.13 2.43 0.07 2.43 0.07 5.26-1.04 0.5-6.28 0.5-6.28-1.82-12-3.86-3.53-7.76-3.28-12.7-3.21-3.27 0.28-5.01 1-7.44 3.21zm11 35v1h5v-1h-5z" fill="#D3C2BC"/>
<path transform="translate(1006 487)" d="m0 0c5.02 3.34 7.96 8.51 9.71 14.1 0.23 3.68 0.18 7.32 0 11-2.24 1.12-3.65 1.2-6.14 1.32-0.84 0.04-1.67 0.08-2.54 0.12-1.33 0.06-1.33 0.06-2.69 0.12-0.9 0.05-1.8 0.09-2.73 0.13-6.63 0.3-13.2 0.43-19.9 0.31 0.25 4.25 0.57 6.48 3.32 9.81 3.87 3.15 6.44 4.45 11.4 4.39 1.33-0.01 1.33-0.01 2.7-0.02 0.92-0.02 1.84-0.04 2.78-0.05 1.41-0.02 1.41-0.02 2.84-0.03 2.31-0.03 4.61-0.06 6.91-0.1 0.63 1.88 0.63 1.88 1 4-2.39 2.4-3.27 2.31-6.56 2.56-3.02 0.03-3.02 0.03-5.44 1.44-7.42 0.53-14.3-0.63-20.3-5.31-5.76-5.76-7.63-10.3-7.94-18.2 0.04-6.06 1.58-11.6 3.25-17.4h2c0.12-0.9 0.12-0.9 0.25-1.83 1.01-2.91 2.18-3.48 4.88-4.92 6.72-3.16 16.1-4.05 23.2-1.39zm-21.3 8.14c-2.63 4.09-3.45 7.15-3 12 1.76 1.75 4.04 1.13 6.38 1.14 0.72-0.01 1.44-0.01 2.19-0.01 1.09-0.01 1.09-0.01 2.2-0.01 4.82-0.04 9.47-0.33 14.2-1.12 0.49-4.82 0.43-8.14-1.75-12.6-2.74-2.84-5.4-2.89-9.25-3-4.54 0.09-7.31 0.86-11 3.56zm-11 20 1 2zm22 15 4 1z" fill="#D3C2BC"/>
<path transform="translate(483 489)" d="m0 0c5.06 5.17 5.31 10.6 5.28 17.6-0.15 6.72-0.55 13.4-1.05 20.1 1.69 0.18 1.69 0.18 3.41 0.37 1.19 0.2 2.37 0.41 3.59 0.63 1.44 2.06 1.44 2.06 2 4-2 2-2 2-5.68 2.31-4.36-0.09-7.44-1.38-11.3-3.31-0.67 0.65-1.34 1.3-2.03 1.97-3.72 2.54-5.93 2.53-10.4 2.46h-3.87c-5.84-0.69-9.92-2.96-13.7-7.43-1.8-5.42-1.88-11.5 0.25-16.9 1.92-3.42 3.61-6.39 7.46-7.71 7.93-1.43 16.2-1.46 23.3 2.59-0.12-1.22-0.24-2.44-0.37-3.69-0.07-0.69-0.14-1.37-0.21-2.08-0.48-2.58-1.38-4.82-2.42-7.23-10.6-0.21-10.6-0.21-21 1l-2-4c7.94-5.37 20.7-6.44 28.8-0.77zm-25.6 22.4c-1.7 3.4-2.31 6.58-2.19 10.4 1.6 3.77 3.57 5.83 7 8 4.65 0.77 8.82 0.52 13.1-1.38 0.93-0.8 0.93-0.8 1.87-1.62v-2c0.99-0.33 1.98-0.66 3-1 0.25-4.24 0.4-7.91-1.06-11.9-3.2-3.42-6.97-3.87-11.5-4.31-3.97 0.4-7.23 1.16-10.2 3.87z" fill="#D2C1BB"/>
<path transform="translate(1213,489)" d="m0 0c4.91 5.46 4.66 10.9 4.75 18 0.03 1.07 0.06 2.13 0.09 3.23 0.1 4.01 0.17 7.99 0.1 12-0.14 2.73-0.14 2.73 1.06 4.77 0.99 0.33 1.98 0.66 3 1v2c0.99 0.33 1.98 0.66 3 1-1.22 1.52-1.22 1.52-3 3-2.16 0.11-2.16 0.11-4.5-0.25-0.77-0.11-1.55-0.22-2.34-0.33-2.16-0.42-2.16-0.42-5.16-1.42-2.47 0.77-2.47 0.77-5.12 1.94-6.12 2.3-11.1 3.53-17.3 1.11-4.36-2.23-7.98-4.22-9.55-9.05-0.78-6.31-0.34-11.6 2.54-17.2 3.26-3.92 6.35-5.62 11.4-6.21 1.39 0.01 2.78 0.04 4.17 0.08 0.71 0.01 1.41 0.01 2.13 0.01 3.74 0.06 6.57 0.35 9.75 2.37l2 1c-0.66-6.06-0.66-6.06-2-12-2.85-0.82-5.29-1.09-8.26-0.99-1.18 0.02-1.18 0.02-2.39 0.05-1.66 0.04-3.32 0.1-4.97 0.15-0.79 0.02-1.58 0.03-2.39 0.05-1.08 0.03-1.08 0.03-2.17 0.06-0.9-0.16-0.9-0.16-1.82-0.32l-2-3c6.05-6.95 21.8-5.78 29-1zm-27 25c-1.1 3.69-1.24 5.96-0.38 9.69 1.83 3.07 3.26 4.52 6.38 6.31 5.34 0.8 10 0.05 15-2v-2h2c2-4 1.62-8.66 1-13-2.73-3.77-4.12-4.64-8.6-5.5-6.72-0.44-11.4 0.84-15.4 6.5z" fill="#D2C1BB"/>
<path transform="translate(1051 319)" d="m0 0c1.04 0.01 1.04 0.01 2.09 0.02 0.73 0 1.46-0.01 2.21-0.01 2.42 0 4.83 0.01 7.25 0.02h5.02c3.51 0 7.02 0.01 10.5 0.02 4.5 0.02 9.01 0.02 13.5 0.02 3.45 0 6.91 0.01 10.4 0.02h4.98c2.32 0.01 4.64 0.01 6.96 0.02h2.1c4.75 0.04 4.75 0.04 6.98 1.15v4c-12.5 0.33-25.1 0.66-38 1l-1 102h-3v-2h-2v-100c-10.9-0.33-21.8-0.66-33-1l-2-3c2.43-2.42 3.68-2.24 6.99-2.26z" fill="#D3C2BC"/>
<path transform="translate(800,489)" d="m0 0v2h2c4.76 5.05 5.7 10.7 6.25 17.4-0.25 2.64-0.25 2.64-1.34 4.29-2.88 2.04-5.27 1.69-8.77 1.64-0.66 0-1.32-0.01-2-0.01-2.11-0.02-4.22-0.05-6.33-0.09-1.43-0.02-2.86-0.03-4.29-0.04-3.51-0.04-7.01-0.09-10.5-0.15-1.18 4.02-0.91 6.17 1 10 6.17 5.33 13.2 4.55 21 4 1.09-0.19 2.18-0.38 3.31-0.58 2.69-0.42 2.69-0.42 4.69 0.58-0.25 1.88-0.25 1.88-1 4-4.5 2.86-9.22 2.37-14.4 2.38-0.93 0.02-1.86 0.04-2.82 0.07-7.07 0.03-10.7-1.48-15.9-6.45-0.57-0.66-1.14-1.32-1.73-2-0.59-0.66-1.17-1.32-1.77-2-3.06-4.31-2.64-9.33-2.67-14.4-0.02-0.75-0.04-1.5-0.06-2.27-0.04-4.65 0.42-7.46 3.31-11.3 0.44-0.63 0.87-1.26 1.32-1.91 7.68-9.64 20-10.8 30.7-5.09zm-22 5c-3.11 4.49-4.67 7.4-4 13 1.05 1.27 1.05 1.27 3.41 1.11 1.04 0 2.08-0.01 3.16-0.01 1.12-0.01 2.25-0.01 3.4-0.01 1.78-0.01 1.78-0.01 3.59-0.03 1.19 0 2.38-0.01 3.6-0.01 2.95-0.01 5.89-0.03 8.84-0.05-0.12-1.43-0.25-2.85-0.38-4.28-0.1-1.19-0.1-1.19-0.21-2.41-0.63-3.57-2.12-5.53-4.41-8.31-2.57-1.29-4.5-1.17-7.38-1.19-0.95-0.01-1.91-0.03-2.89-0.04-2.83 0.24-4.38 0.67-6.73 2.23zm-12 7 1 3zm34 2 1 4z" fill="#D2C1BB"/>
<path transform="translate(415,322)" d="m0 0 2 1c0.69 14.5 1.09 29 1.06 43.6v2.12c-0.01 5-0.04 10-0.06 15l-0.06 15.2c0 1.99-0.01 3.98-0.03 5.98-0.01 6.14 0.13 12 1.09 18.1 1.71 0.04 1.71 0.04 3.46 0.08 4.34 0.09 8.68 0.19 13 0.29 1.86 0.04 3.72 0.09 5.58 0.13 12.7 0.27 25.3 0.76 38 1.5v2h2v2c-3.43 1.05-6.54 1.1-10.1 1.05-1.86-0.02-1.86-0.02-3.74-0.04-1.35-0.02-2.69-0.04-4.03-0.06-1.38-0.02-2.76-0.04-4.14-0.06-2.89-0.04-5.77-0.08-8.66-0.13-3.7-0.06-7.41-0.11-11.1-0.15-2.85-0.04-5.69-0.08-8.54-0.13-1.37-0.02-2.73-0.04-4.1-0.05-1.9-0.02-3.81-0.06-5.72-0.1-1.08-0.01-2.16-0.03-3.28-0.04-2.57-0.29-2.57-0.29-4.57-2.29-0.25-1.87-0.25-1.87-0.24-4.19 0-0.88-0.01-1.75-0.01-2.66 0.01-0.96 0.02-1.93 0.02-2.92v-3.08c0-3.36 0.02-6.73 0.03-10.1 0.01-2.32 0.01-4.65 0.01-6.98 0.01-6.14 0.03-12.3 0.05-18.4 0.02-6.26 0.03-12.5 0.04-18.8 0.02-12.3 0.06-24.6 0.1-36.9l2-1z" fill="#D3C2BC"/>
<path transform="translate(1186,322)" d="m0 0h3c0.01 0.93 0.02 1.85 0.03 2.81 0.1 8.83 0.2 17.7 0.31 26.5 0.05 4.54 0.11 9.08 0.16 13.6 0.21 19.4 0.43 38.7 1.5 58.1 0.68 0.01 1.36 0.02 2.05 0.02 7.06 0.09 14.1 0.19 21.2 0.3 2.64 0.04 5.27 0.07 7.9 0.1 3.79 0.05 7.58 0.11 11.4 0.17 1.18 0.01 2.35 0.02 3.57 0.03 1.65 0.03 1.65 0.03 3.33 0.06 0.97 0.01 1.94 0.03 2.93 0.04 2.96 0.31 5.08 0.83 7.69 2.28 0.81 2.12 0.81 2.12 1 4-8.44-0.08-16.9-0.18-25.3-0.29-3.92-0.05-7.84-0.09-11.8-0.13-3.78-0.04-7.56-0.09-11.3-0.14-1.44-0.02-2.89-0.03-4.33-0.04-2.02-0.02-4.04-0.05-6.06-0.08-1.15-0.01-2.3-0.03-3.48-0.04-2.71-0.28-2.71-0.28-4.71-2.28-0.25-1.87-0.25-1.87-0.25-4.18 0-0.88-0.01-1.75-0.01-2.66 0.01-0.96 0.01-1.93 0.02-2.92-0.01-1.52-0.01-1.52-0.01-3.07 0-3.36 0.01-6.72 0.02-10.1v-6.98c0-4.88 0.01-9.76 0.02-14.6 0.02-6.27 0.03-12.5 0.02-18.8 0-4.81 0.01-9.61 0.02-14.4v-6.94c0.01-3.22 0.01-6.45 0.02-9.67v-2.93c0.01-0.87 0.01-1.74 0.02-2.64v-2.32c0.13-1.74 0.13-1.74 1.13-2.74z" fill="#D3C2BC"/>
<path transform="translate(715,456)" d="m0 0c2.74 2.67 3.9 4.33 4.48 8.14-0.01 1.18-0.02 2.36-0.03 3.58 0 0.65 0.01 1.31 0.01 1.98-0.01 2.15-0.04 4.3-0.07 6.44-0.01 1.5-0.01 2.99-0.02 4.49-0.01 3.92-0.05 7.85-0.1 11.8-0.04 4.01-0.05 8.02-0.07 12-0.05 7.86-0.12 15.7-0.2 23.6l8 2-2 4c-1.58 0.08-3.17 0.14-4.75 0.19-1.32 0.05-1.32 0.05-2.67 0.1-3.18-0.36-4.32-1.05-6.58-3.29-0.48-2.68-0.48-2.68-0.45-5.94v-3.7c0.02-1.32 0.04-2.64 0.06-4 0.01-1.36 0.01-2.72 0.02-4.09 0.01-3.58 0.05-7.17 0.1-10.8 0.04-3.66 0.05-7.32 0.07-11 0.05-7.18 0.12-14.4 0.2-21.5h-1v-8h-5c0.31-1.88 0.31-1.88 1-4 3.5-2.33 4.89-2.59 9-2zm-3 72 1 3z" fill="#D3C2BC"/>
<path transform="translate(86,328)" d="m0 0c-6.62 3-6.62 3-10 3-0.23 0.56-0.45 1.11-0.69 1.69-1.67 2.94-3.89 4.95-6.31 7.31-0.99 1.49-0.99 1.49-2 3l2 2c-0.99 0.33-1.98 0.66-3 1-1.19 3.03-1.1 6.02-1.06 9.25 0.01 1.34 0.01 1.34 0.02 2.7 0.02 0.68 0.03 1.35 0.04 2.05l2 1c0.23-0.65 0.46-1.3 0.7-1.98 2.1-5.62 4.16-9.68 8.3-14 0.62-0.74 1.24-1.49 1.88-2.25 2.86-2.36 5.52-2.86 9.12-3.75 1.57-0.48 3.13-0.99 4.69-1.5 0.72-0.24 1.45-0.47 2.2-0.72 2.13-0.79 4.1-1.73 6.11-2.78v2h17v1c-0.56 0.05-1.12 0.1-1.69 0.15-2.59 0.24-5.17 0.48-7.75 0.73-0.88 0.07-1.75 0.15-2.66 0.23-8.58 0.78-8.58 0.78-16.9 2.89l-1 2c-4.5 3-4.5 3-7 3-0.27 0.56-0.54 1.11-0.81 1.69-1.19 2.31-1.19 2.31-2.63 4.62-3.45 5.8-3.45 5.8-4.5 12.3 1.63 4.13 3.35 6.61 7.43 8.58 2.48 1 4.98 1.93 7.51 2.8v2c-13.1-1.99-23.1-7.46-31.8-17.8-2.93-5.26-1.74-11.1-0.44-16.7 1.18-2.49 2.11-3.74 4.19-5.5 0.87-0.96 0.87-0.96 1.75-1.94 5.26-4.82 10.2-6.53 17.1-7.67 5.85-1.08 5.85-1.08 8.14-0.39zm-28 23 1 4z" fill="#D1C0BA"/>
<path transform="translate(412,489)" d="m0 0c0.5 0.99 0.5 0.99 1 2l-1 2c-1.09-0.02-2.17-0.05-3.29-0.07-1.44-0.02-2.89-0.04-4.33-0.05-0.72-0.02-1.43-0.04-2.17-0.06-5.85-0.05-10.3 0.6-15 4.49-4.81 5.74-4.89 11.5-4.25 18.7 0.91 4.59 1.96 7.11 5.57 10.2 4.24 2.24 7.41 2.37 12.1 2.37 7.79 0.05 7.79 0.05 10.3 1.97 0.32 0.48 0.65 0.97 0.98 1.47-4.33 2.89-8.21 2.37-13.3 2.38-0.94 0.02-1.88 0.04-2.84 0.07-7.45 0.03-11.1-1.85-16.5-6.95-0.76-0.83-1.52-1.65-2.31-2.5-0.53-0.52-1.06-1.04-1.61-1.58-3.69-6.44-2.43-17.5-0.58-24.5 2.8-5.64 7.57-9.26 13.2-12 8.01-2.13 16.7-2.19 24 2zm-37 30 1 2zm22 11v1h8v-1h-8z" fill="#D3C2BC"/>
<path transform="translate(267,271)" d="m0 0c8.14 0.96 15 7.37 20.1 13.6 8.81 12.2 10.6 27 8.64 41.6-1.53 8.6-4.03 16-9.7 22.8-0.56 0.73-1.13 1.47-1.71 2.22-9.37 11.5-20.7 17.9-35.3 19.8-2.97-0.41-2.97-0.41-5-1v-1c1.14-0.19 2.29-0.39 3.46-0.59 1.5-0.26 2.99-0.52 4.48-0.79 1.13-0.18 1.13-0.18 2.28-0.38 1.94-0.35 3.86-0.79 5.78-1.24l1-2c2.65-0.59 5.29-0.74 8-1v-4c1.42-0.09 1.42-0.09 2.88-0.19 1.54-0.4 1.54-0.4 3.12-0.81 1.09-2.21 1.09-2.21 2-5 0.92-1.11 1.89-2.19 2.88-3.25 3.44-3.82 5.28-7.98 7.12-12.8l-9 9c1.03-2.91 2.11-5.15 3.94-7.67 2.36-3.82 3.36-7.17 4.31-11.5 0.17-0.75 0.34-1.49 0.51-2.26 1.83-8.6 2.09-16.2-0.76-24.6v-2l-2-1c0.99-0.33 1.98-0.66 3-1l2 5c-3.71-12.2-9.58-20.8-20-28l-2-2zm23 31 1 3z" fill="#D1C0BA"/>
<path transform="translate(938,486)" d="m0 0 2 2c-0.38 2.62-0.38 2.62-1 5-1.52-0.09-1.52-0.09-3.06-0.19-4.38 0.21-7.09 1.12-10.9 3.19-6.21 6.97-5.34 17.8-5.56 26.6-0.06 2.15-0.13 4.3-0.19 6.44-0.03 0.94-0.05 1.88-0.08 2.84-0.17 2.16-0.17 2.16-1.17 3.16-2.44 0.25-2.44 0.25-5 0-2.55-3.83-2.45-7.15-2.63-11.6-0.04-0.83-0.09-1.67-0.13-2.54-0.13-2.68-0.25-5.36-0.36-8.04-0.09-1.81-0.18-3.63-0.27-5.45-0.21-4.45-0.41-8.91-0.61-13.4-2.48-0.99-2.48-0.99-5-2v-3c3.66-2.34 6.72-2.53 11-2 2.94 2.5 2.94 2.5 5 5l5-2v-2c4.51-2.25 8.05-2.32 13-2zm-27 26 1 3z" fill="#D3C2BC"/>
<path transform="translate(1146,486)" d="m0 0c1.84 1.27 1.84 1.27 3 3l-1 4h-12l-2 4c-0.99 0.33-1.98 0.66-3 1-0.99 2.53-0.99 2.53-1.62 5.5-1.31 5.43-1.31 5.43-2.38 6.5-0.16 1.78-0.25 3.56-0.32 5.35-0.04 1.08-0.08 2.16-0.12 3.27-0.04 1.14-0.08 2.27-0.12 3.44-0.05 1.14-0.09 2.28-0.13 3.46-0.11 2.82-0.21 5.65-0.31 8.48-2.38 0.12-2.38 0.12-5 0-2.45-2.45-2.24-3.81-2.25-7.16 0-0.69 0.01-1.39 0.02-2.11v-2.19c0-1.52 0.01-3.05 0.02-4.57 0.02-2.33 0.02-4.66 0.02-6.99 0.01-1.48 0.02-2.96 0.02-4.44 0-0.7 0-1.39 0.01-2.11 0.03-3.28 0.15-6.29 1.16-9.43h-2v-2h-5c0.31-1.88 0.31-1.88 1-4 3.44-2.29 4.99-2.18 9-2l4 7c1.08-1.14 1.08-1.14 2.19-2.31 5.17-4.94 9.6-7.07 16.8-5.69z" fill="#D3C2BC"/>
<path transform="translate(1144,321)" d="m0 0 4 2 1 106h-3c-2.64-2.64-2.27-3.88-2.32-7.57-0.02-1.18-0.04-2.36-0.06-3.57-0.01-1.29-0.02-2.58-0.03-3.9l-0.06-4.05c-0.06-3.62-0.09-7.24-0.13-10.9-0.03-2.97-0.07-5.95-0.11-8.93-0.22-17.2-0.38-34.4-0.41-51.6-0.01-0.81-0.01-1.62-0.01-2.45-0.01-2.22-0.01-4.45 0-6.67v-3.66c0.13-2.78 0.13-2.78 1.13-4.78zm0 26v15h1v-15h-1z" fill="#D3C2BC"/>
<path transform="translate(1277,322)" d="m0 0c2.41 2.41 2.26 3 2.32 6.3 0.02 0.9 0.04 1.8 0.06 2.73 0.02 1.49 0.02 1.49 0.03 3 0.02 1.04 0.04 2.08 0.06 3.15 0.06 3.44 0.11 6.88 0.15 10.3 0.04 2.38 0.08 4.75 0.12 7.13 0.37 24.1 0.36 48.2 0.26 72.4h-4c-1.7-3.4-1.15-7.29-1.15-11 0-0.93 0-1.87-0.01-2.83 0-3.11-0.01-6.22-0.01-9.33 0-2.16 0-4.32-0.01-6.48 0-4.53-0.01-9.05-0.01-13.6 0-5.81-0.01-11.6-0.03-17.4-0.01-4.46-0.01-8.92-0.01-13.4 0-2.14 0-4.27-0.01-6.41-0.01-3-0.01-5.99 0-8.99-0.01-0.88-0.01-1.76-0.02-2.67 0.02-4.7 0.45-8.46 2.26-12.9z" fill="#D3C2BC"/>
<path transform="translate(1067,487)" d="m0 0v2h2l1 39 4 2 3 2c-7.99 3.24-7.99 3.24-11.9 2.31-2.06-1.31-2.06-1.31-4.06-3.31-0.18-2.76-0.25-5.43-0.24-8.18-0.01-1.67-0.03-3.34-0.05-5-0.01-2.63-0.02-5.26-0.02-7.9 0.01-2.53-0.02-5.07-0.05-7.6 0.01-0.79 0.02-1.58 0.03-2.39 0.01-2.49 0.01-2.49-0.67-5.93-2.38-2.09-2.38-2.09-5-3 3.22-4.83 6.55-4.1 12-4zm-5 42 1 2z" fill="#D3C2BC"/>
<path transform="translate(858,487)" d="m0 0c1.66 1.08 1.66 1.08 3 3 0.32 3.2 0.32 3.2 0.26 7.12-0.01 0.69-0.02 1.39-0.02 2.1-0.03 2.22-0.07 4.44-0.12 6.66l-0.09 6.63c-0.02 2.01-0.06 4.02-0.1 6.03 0.06 3.03 0.14 5.58 1.07 8.46 1.97 1.07 3.97 2.07 6 3l1 3c-2.59 1.29-4.55 1.17-7.44 1.19-0.97 0.01-1.93 0.03-2.93 0.04-2.63-0.23-2.63-0.23-5.63-2.23-0.17-2.51-0.16-4.75 0-7.24 0.03-0.72 0.06-1.43 0.09-2.17 0.1-2.3 0.22-4.6 0.35-6.9 0.12-2.29 0.23-4.58 0.33-6.87 0.07-1.42 0.14-2.85 0.23-4.27 0.18-4-0.05-7.02-2-10.6-2.02-0.65-2.02-0.65-4-1l-1-3c3.79-2.68 6.35-3.61 11-3z" fill="#D3C2BC"/>
<path transform="translate(111 324)" d="m0 0c4.92-0.16 8.77 0.77 13.4 2.42 0.97 0.34 0.97 0.34 1.95 0.69 1.87 0.66 3.74 1.33 5.61 2 1.81 0.61 3.62 1.21 5.44 1.81 1.17 0.39 2.35 0.78 3.56 1.19v2c7.06 3.86 14.2 7.69 21.2 11.5 2.75 1.52 2.75 1.52 5.75 3.52 2.16 0.79 4.35 1.45 6.55 2.12 2.96 1.06 5.65 2.43 8.45 3.88 11.8 6.06 11.8 6.06 24 11.2 2.08 0.81 4.04 1.76 6.02 2.79-6.38-0.52-11.6-2.12-17.5-4.56-0.87-0.36-1.74-0.71-2.63-1.08-6.98-2.89-13.7-6.15-20.4-9.61-14.1-7.24-29.1-11.7-44.4-15.8v-1c5.45 0.49 5.45 0.49 11 1v-2c-0.98-0.29-0.98-0.29-1.98-0.59-3.79-1.13-7.58-2.26-11.3-3.54-2.63-0.91-2.63-0.91-5.19-1.37-2.5-0.5-2.5-0.5-5.44-1.5-6.48-2.12-12.7-2.13-19.4-2.06-1.4 0-1.4 0-2.81 0.01-2.28 0.01-4.55 0.03-6.82 0.05v-1c4.8-0.9 9.51-1.3 14.4-1.56 0.71-0.05 1.43-0.09 2.17-0.14 2.83-0.16 5.67-0.26 8.51-0.41z" fill="#CFBFB9"/>
<path transform="translate(140 271)" d="m0 0c0.7 0 1.4 0.01 2.13 0.01h2.19c1.53 0 3.06 0 4.58 0.01 2.34 0.01 4.68 0 7.02-0.02 1.49 0.01 2.97 0.01 4.46 0.01 0.7 0 1.4-0.01 2.12-0.01 3.66 0.04 5.18 0.19 8.32 2.28l-1 4h-32c0.04 6.26 0.04 6.26 0.09 12.5 0.01 4.94-0.24 9.6-1.09 14.5-0.99-0.33-1.98-0.66-3-1-2.29-4.58-1.19-11-1.19-16-0.01-1.31-0.02-2.62-0.04-3.97v-3.78c-0.01-1.15-0.01-2.3-0.01-3.49 0.44-5.05 2.91-5 7.42-5.04z" fill="#D3C2BC"/>
<path transform="translate(211,377)" d="m0 0c0.02 6 0.04 12 0.05 18 0.01 2.03 0.02 4.07 0.03 6.11 0.01 2.94 0.01 5.87 0.02 8.81 0 0.9 0.01 1.81 0.01 2.74 0 4.9-0.28 9.52-1.11 14.4h-2c-0.97-10.8-1.12-21.5-1.06-32.4 0-1.62 0.01-3.24 0.01-4.86 0.01-3.92 0.03-7.84 0.05-11.8 3-1 3-1 4-1z" fill="#938783"/>
<path transform="translate(166,349)" d="m0 0c6.37 0.96 10.7 2.19 16 6 1.93 0.71 3.87 1.42 5.82 2.09 2.49 1.04 4.6 2.38 6.87 3.85 5.73 3.58 11.8 5.33 18.3 7.06v1c-6.38-0.52-11.6-2.12-17.5-4.56-0.86-0.35-1.73-0.71-2.62-1.07-7.1-2.94-14-6.26-20.8-9.8-3.01-1.63-3.01-1.63-6.09-2.57v-2z" fill="#D3C2BC"/>
<path transform="translate(260,342)" d="m0 0 3 2c-1.58 1.15-3.16 2.3-4.75 3.44-0.88 0.64-1.76 1.27-2.67 1.93-2.34 1.48-3.95 2.02-6.58 2.63l-1 2v-2c-0.65 0.13-1.3 0.27-1.97 0.41-7.16 1.4-14.2 2.09-21.5 2.4-1.04 0.07-2.08 0.13-3.16 0.2-7.48 0.33-14.3-0.45-21.4-3.01l-2-2h8v2c4.02 0.05 8.03 0.09 12 0.11 2.02 0.01 4.04 0.04 6.06 0.07 18.8 0.34 18.8 0.34 34.9-8.18l1-2z" fill="#CEBEB8"/>
<path transform="translate(859,464)" d="m0 0c2 2 2 2 2.25 5-0.25 3-0.25 3-2.25 5-3.44-0.35-5.07-1.05-8-3 0.26-2.34 0.59-4.68 1-7 2.71-1.35 4.13-0.79 7 0z" fill="#D3C2BC"/>
<path transform="translate(1063,462)" d="m0 0c3.16 1.37 3.99 1.99 6 5 0.12 2.69 0.12 2.69 0 5-2.19 1.19-2.19 1.19-5 2-2.81-1.38-2.81-1.38-5-3 0.62-5.54 0.62-5.54 2.56-7.88 0.48-0.37 0.95-0.74 1.44-1.12z" fill="#D3C2BC"/>
<path transform="translate(1321,399)" d="m0 0h16v2c0.98-0.02 1.96-0.04 2.97-0.06 4.21 0 8.3 0.5 12.5 1.06 0.73 0.1 1.46 0.19 2.21 0.29 1.79 0.23 3.57 0.47 5.35 0.71v1c-22.8 0.21-22.8 0.21-32-1l1-2-8-1v-1zm11 1 4 1z" fill="#AC9E99"/>
<path transform="translate(250,365)" d="m0 0 1 2c-2.97 0.66-5.94 1.32-9 2l2 2c-2.96 0.08-5.92 0.14-8.88 0.19-1.26 0.04-1.26 0.04-2.55 0.07-0.8 0.01-1.61 0.02-2.44 0.03-0.74 0.02-1.48 0.03-2.25 0.05-0.62-0.11-1.24-0.22-1.88-0.34l-2-3c0.98 0.03 0.98 0.03 1.98 0.07 5.14 0.11 9.19-0.11 14-2.07 3.38-1.06 6.46-1.08 10-1z" fill="#9F928E"/>
<path transform="translate(99,334)" d="m0 0 1 2h17v1c-0.56 0.05-1.12 0.1-1.69 0.15-2.59 0.24-5.17 0.48-7.75 0.73-0.88 0.07-1.75 0.15-2.66 0.23-5.77 0.56-11.3 1.52-16.9 2.89 1.61-3.23 4.77-3.66 8-5l3-2z" fill="#D3C2BC"/>
<path transform="translate(268,363)" d="m0 0c-1 3-1 3-2.75 3.88-2.41 0.73-4.82 1.45-7.25 2.12-0.8 0.22-1.6 0.44-2.42 0.67-4.17 1.04-7.37 1.69-11.6 0.33v-1c1.14-0.19 2.29-0.39 3.46-0.59 1.5-0.26 2.99-0.52 4.48-0.79 0.75-0.12 1.51-0.25 2.28-0.38 1.94-0.35 3.86-0.79 5.78-1.24l1-2c3-1 3-1 7-1z" fill="#CEBDB7"/>
<path transform="translate(117,330)" d="m0 0v1c-3.75 0.53-7.5 1.05-11.2 1.56-1.6 0.23-1.6 0.23-3.22 0.46-1.54 0.21-1.54 0.21-3.11 0.42-0.94 0.13-1.88 0.26-2.85 0.4-2.48 0.15-4.23-0.09-6.57-0.84 8.41-3.51 18-3.15 27-3z" fill="#BAABA6"/>
<path transform="translate(224,368)" d="m0 0h9v3c-3.38 0.19-3.38 0.19-7 0l-2-3z" fill="#D3C2BC"/>
<path transform="translate(852,499)" d="m0 0h1v22h-1v-22z" fill="#D3C2BC"/>
<path transform="translate(156,336)" d="m0 0c5.87 0.52 10.6 1.76 16 4-3.94 1.31-5.78 0.34-9.69-0.94-1.18-0.38-2.36-0.76-3.57-1.15-0.91-0.3-1.81-0.6-2.74-0.91v-1z" fill="#D3C2BC"/>
<path transform="translate(213,369)" d="m0 0c1.44-0.05 2.87-0.09 4.31-0.12 0.8-0.03 1.6-0.05 2.43-0.08 2.26 0.2 2.26 0.2 5.26 2.2l-12-1v-1z" fill="#D3C2BC"/>
<path transform="translate(252,361)" d="m0 0 3 2-5 2v-3l2-1z" fill="#332F2E"/>
<path transform="translate(710,471)" d="m0 0h1v12h-1v-12z" fill="#D3C2BC"/>
<path transform="translate(147,334)" d="m0 0c2.97 0.33 5.94 0.66 9 1-4 2-4 2-6.75 1.12-0.74-0.37-1.49-0.74-2.25-1.12v-1z" fill="#B0A29D"/>
<path transform="translate(257,267)" d="m0 0c5.75 0.75 5.75 0.75 8 3-2.34-0.26-4.68-0.59-7-1l-1-2z" fill="#D3C2BC"/>
<path transform="translate(177,341)" d="m0 0c3.47 1.49 3.47 1.49 7 3-3 1-3 1-5.19 0.06-0.6-0.35-1.19-0.7-1.81-1.06v-2z" fill="#D3C2BC"/>
<path transform="translate(118,336)" d="m0 0h9v1h-9v-1z" fill="#D3C2BC"/>
<path transform="translate(229,359)" d="m0 0h8v1h-8v-1z" fill="#D3C2BC"/>
<path transform="translate(78,337)" d="m0 0c0.99 0.33 1.98 0.66 3 1-1.98 0.66-3.96 1.32-6 2l3-3z" fill="#9F928E"/>
<path transform="translate(1356,399)" d="m0 0h7v1h-7v-1z" fill="#B5A6A1"/>
<path transform="translate(248,358)" d="m0 0h6l-2 2-4-2z" fill="#211F1E"/>
<path transform="translate(184,345)" d="m0 0c2.97 0.5 2.97 0.5 6 1-0.99 0.33-1.98 0.66-3 1l-3-2z" fill="#D3C2BC"/>
<path transform="translate(121,324)" d="m0 0h6v1h-6v-1z" fill="#040404"/>
<path transform="translate(73,340)" d="m0 0 2 1-4 1 2-2z" fill="#D3C2BC"/>
<path transform="translate(159,333)" d="m0 0 4 2-4-1v-1z" fill="#A99C97"/>
<path transform="translate(539,317)" d="m0 0h5v1h-5v-1z" fill="#D3C2BC"/>
<path transform="translate(278,287)" d="m0 0c0.99 0.33 1.98 0.66 3 1l-1 2-2-3z" fill="#A99C97"/>
<path transform="translate(221,278)" d="m0 0h5v1h-5v-1z" fill="#040404"/>
<path transform="translate(1127,510)" d="m0 0 1 4z" fill="#040404"/>
<path transform="translate(932,382)" d="m0 0 1 4z" fill="#040404"/>
<path transform="translate(932,364)" d="m0 0 1 4z" fill="#040404"/>
<path transform="translate(72,362)" d="m0 0 1 4z" fill="#040404"/>
<path transform="translate(224,358)" d="m0 0 4 1z" fill="#D3C2BC"/>
<path transform="translate(143,333)" d="m0 0 4 1z" fill="#9F928E"/>
<path transform="translate(282,291)" d="m0 0c0.99 0.5 0.99 0.5 2 1l-1 2-1-3z" fill="#D3C2BC"/>
<path transform="translate(1193,502)" d="m0 0c3 1 3 1 3 1z" fill="#D3C2BC"/>
<path transform="translate(195,349)" d="m0 0c3 1 3 1 3 1z" fill="#8E827E"/>
<path transform="translate(190,347)" d="m0 0c3 1 3 1 3 1z" fill="#D3C2BC"/>
<path transform="translate(69,342)" d="m0 0c0.99 0.5 0.99 0.5 2 1-0.99 0.5-0.99 0.5-2 1v-2z" fill="#D3C2BC"/>
<path transform="translate(173,341)" d="m0 0c3 1 3 1 3 1z" fill="#D3C2BC"/>
<path transform="translate(81,336)" d="m0 0c3 1 3 1 3 1z" fill="#D3C2BC"/>
<path transform="translate(163,335)" d="m0 0c3 1 3 1 3 1z" fill="#D3C2BC"/>
<path transform="translate(86,334)" d="m0 0c3 1 3 1 3 1z" fill="#D3C2BC"/>
<path transform="translate(547,323)" d="m0 0c3 1 3 1 3 1z" fill="#040404"/>
<path transform="translate(276,285)" d="m0 0h2l-1 2-1-2z" fill="#8E827E"/>
<path transform="translate(256,276)" d="m0 0c3 1 3 1 3 1z" fill="#040404"/>
<path transform="translate(397,535)" d="m0 0 2 1z" fill="#040404"/>
<path transform="translate(1202,509)" d="m0 0 2 1z" fill="#040404"/>
<path transform="translate(562,485)" d="m0 0 2 1z" fill="#D3C2BC"/>
<path transform="translate(88,377)" d="m0 0 2 1z" fill="#040404"/>
<path transform="translate(253,360)" d="m0 0 2 1z" fill="#D3C2BC"/>
<path transform="translate(243,359)" d="m0 0 2 1z" fill="#000102"/>
<path transform="translate(239,358)" d="m0 0 2 1z" fill="#D3C2BC"/>
<path transform="translate(220,357)" d="m0 0 2 1z" fill="#D3C2BC"/>
<path transform="translate(214,355)" d="m0 0 2 1z" fill="#D3C2BC"/>
<path transform="translate(246,354)" d="m0 0 2 1z" fill="#6B6360"/>
<path transform="translate(193,348)" d="m0 0 2 1z" fill="#D3C2BC"/>
<path transform="translate(170,338)" d="m0 0 2 1z" fill="#040404"/>
<path transform="translate(168,337)" d="m0 0 2 1z" fill="#040404"/>
<path transform="translate(84,335)" d="m0 0 2 1z" fill="#D3C2BC"/>
<path transform="translate(121,331)" d="m0 0 2 1z" fill="#040404"/>
<path transform="translate(140,327)" d="m0 0 2 1z" fill="#040404"/>
<path transform="translate(135,326)" d="m0 0 2 1z" fill="#D3C2BC"/>
<path transform="translate(130,325)" d="m0 0 2 1z" fill="#040404"/>
<path transform="translate(273,283)" d="m0 0 2 1z" fill="#D3C2BC"/>
<path transform="translate(270,281)" d="m0 0 2 1z" fill="#D3C2BC"/>
<path transform="translate(266,279)" d="m0 0 2 1z" fill="#6B6360"/>
<path transform="translate(261,277)" d="m0 0 2 1z" fill="#040404"/>
<path transform="translate(253,275)" d="m0 0 2 1z" fill="#040404"/>
<path transform="translate(265,270)" d="m0 0 2 1z" fill="#D3C2BC"/>
</svg>
